<?xml version="1.0" standalone="no"?>
<!DOCTYPE svg PUBLIC "-//W3C//DTD SVG 20010904//EN"
 "http://www.w3.org/TR/2001/REC-SVG-20010904/DTD/svg10.dtd">
<svg version="1.0" xmlns="http://www.w3.org/2000/svg"
 width="260.000000pt" height="260.000000pt" viewBox="0 0 260.000000 260.000000"
 preserveAspectRatio="xMidYMid meet">
<metadata>
Created by potrace 1.14, written by Peter Selinger 2001-2017
</metadata>
<g transform="translate(0.000000,260.000000) scale(0.100000,-0.100000)"
fill="#000000" stroke="none">
<path d="M0 1300 l0 -1300 1300 0 1300 0 0 1300 0 1300 -1300 0 -1300 0 0
-1300z m1213 370 c78 -20 211 -83 253 -121 110 -97 179 -171 199 -209 12 -25
32 -63 43 -85 20 -38 52 -129 72 -205 5 -19 10 -211 10 -426 0 -352 -2 -393
-17 -405 -13 -11 -70 -14 -274 -14 -226 0 -260 2 -275 16 -14 15 -16 58 -18
375 l-1 359 -29 85 c-24 71 -36 92 -75 127 -38 35 -53 42 -86 42 -33 0 -48 -7
-86 -42 -56 -51 -63 -64 -84 -153 -14 -56 -17 -133 -18 -424 l-2 -355 -35 -18
c-31 -15 -63 -17 -275 -14 -169 2 -247 6 -263 15 l-22 13 0 402 0 402 24 52
c13 28 29 75 35 105 7 29 25 73 41 97 17 24 30 50 30 57 0 12 132 151 190 200
14 12 45 31 70 44 25 12 52 29 61 37 22 18 101 41 209 58 102 17 223 11 323
-15z m1055 -68 c12 -4 58 -42 101 -85 123 -120 118 -93 117 -742 l-1 -530 -39
-3 c-28 -3 -44 2 -60 18 -24 22 -135 50 -201 50 -57 0 -110 -16 -192 -57 -60
-30 -75 -34 -88 -23 -13 11 -15 80 -15 552 l0 540 36 73 c37 75 122 170 179
199 30 16 119 20 163 8z"/>
</g>
</svg>
